<?xml version="1.0" encoding="UTF-8"?>
<svg xmlns="http://www.w3.org/2000/svg" xmlns:xlink="http://www.w3.org/1999/xlink" version="1.1" viewBox="0 0 22 23.3">
  <defs>
    <style>
      .cls-1 {
        fill: #1070a8;
      }

      .cls-1, .cls-2, .cls-3, .cls-4, .cls-5, .cls-6, .cls-7, .cls-8 {
        stroke-width: 0px;
      }

      .cls-2 {
        fill: #0e9fdb;
      }

      .cls-3 {
        fill: #000;
      }

      .cls-4 {
        fill: #c01e20;
      }

      .cls-5 {
        fill: url(#_未命名漸層);
      }

      .cls-6 {
        fill: #d45141;
      }

      .cls-7 {
        fill: #fff;
      }

      .cls-9 {
        display: none;
      }

      .cls-8 {
        fill: #2bab38;
      }
    </style>
    <linearGradient id="_未命名漸層" data-name="未命名漸層" x1="-353" y1="609.1" x2="-295.6" y2="527.2" gradientTransform="translate(346.5 -579.9)" gradientUnits="userSpaceOnUse">
      <stop offset="0" stop-color="#ffb900"/>
      <stop offset="1" stop-color="#9100eb"/>
    </linearGradient>
  </defs>
  <g id="_圖層_1" data-name="圖層 1" class="cls-9">
    <g id="_圖層_1-2" data-name="圖層 1" class="cls-9">
      <path class="cls-8" d="M53.9-61.6H-9.6c-10,0-18.2,8-18.2,18V19.9c0,10,8.1,18.2,18,18.2h63.5c10,0,18.2-8.1,18.2-18v-63.5c.1-10-8-18.2-18-18.2"/>
      <path class="cls-7" d="M58.3-16.1c0-16.3-16.3-29.5-36.3-29.5S-14.3-32.4-14.3-16.1-1.4,10.7,16.1,13c1.2.3,2.8.8,3.2,1.8.4.9.2,2.4,0,3.3,0,0-.4,2.6-.5,3.1-.2.9-.7,3.6,3.1,2,3.9-1.6,20.9-12.3,28.5-21.1h0c5.2-5.9,7.8-11.7,7.8-18.2"/>
      <path class="cls-8" d="M14.5-24h-2.5c-.4,0-.7.3-.7.7V-7.5c0,.4.3.7.7.7h2.5c.4,0,.7-.3.7-.7v-15.8c0-.4-.3-.7-.7-.7"/>
      <path class="cls-8" d="M32.1-24h-2.5c-.4,0-.7.3-.7.7v9.4l-7.3-9.8h0c0,0-2.5,0-2.5,0-.4,0-.7.3-.7.7V-7.3c0,.4.3.7.7.7h2.5c.4,0,.7-.3.7-.7v-9.4l7.3,9.8c0,0,0,0,.2.2h2.7c.4,0,.7-.3.7-.7v-15.9c-.3-.4-.6-.7-1-.7"/>
      <path class="cls-8" d="M8.4-10.7H1.5v-12.6c0-.4-.3-.7-.7-.7H-1.8c-.4,0-.7.3-.7.7V-7.5h0c0,.2.1.4.2.5h0c.1,0,.3.2.5.2h10.2c.4,0,.7-.3.7-.7v-2.5c0-.4-.3-.7-.7-.7"/>
      <path class="cls-8" d="M46.2-20c.4,0,.7-.3.7-.7v-2.5c0-.4-.3-.7-.7-.7h-10.2c-.2,0-.4,0-.5.2h0c0,0-.2.3-.2.5h0V-7.4h0c0,.2,0,.4.2.5h0c0,0,.3.2.5.2h10.2c.4,0,.7-.3.7-.7v-2.5c0-.4-.3-.7-.7-.7h-7v-2.7h7c.4,0,.7-.3.7-.7v-2.5c0-.4-.3-.7-.7-.7h-7v-2.7h7Z"/>
    </g>
    <g id="_圖層_3" data-name="圖層 3" class="cls-9">
      <path class="cls-2" d="M29.1-31.2c-4.4,1.6-7.1,5.7-6.8,10.2v1.7c0,0-1.6-.2-1.6-.2-6.4-.8-11.9-3.6-16.6-8.2l-2.3-2.3-.6,1.7c-1.3,3.8-.5,7.8,2.2,10.5,1.4,1.5,1.1,1.7-1.3.8-.8-.3-1.6-.5-1.6-.4-.2.2.6,3.5,1.3,4.7.9,1.8,2.8,3.5,4.8,4.5l1.7.8h-2q-2,0-1.8.8c.7,2.3,3.5,4.7,6.5,5.8L13.2-.1l-1.9,1.1c-2.8,1.6-6.1,2.5-9.4,2.6-1.6,0-2.9.2-2.9.3,0,.4,4.3,2.3,6.7,3.1,7.4,2.3,16.3,1.3,22.9-2.6,4.7-2.8,9.4-8.3,11.6-13.7,1.2-2.9,2.4-8.1,2.4-10.6s0-1.8,2.1-3.8c1.2-1.1,2.2-2.4,2.4-2.7q.3-.7-1.5,0c-3,1.1-3.4.9-1.9-.7,1.1-1.1,2.4-3.2,2.4-3.8s-.5.1-1.1.4c-.6.4-2,.9-3.1,1.2l-1.9.6-1.8-1c-.9-.6-2.3-1.3-3-1.6-1.7-.5-4.4-.4-6.1.2ZM22.2,38.3C-5.4,38.3-27.8,15.9-27.8-11.7S-5.4-61.7,22.2-61.7s50,22.4,50,50-22.4,50-50,50Z"/>
    </g>
    <g id="_圖層_4" data-name="圖層 4" class="cls-9">
      <circle class="cls-4" cx="22.2" cy="-11.7" r="50"/>
      <path class="cls-7" d="M52.8-24.2s-.6-4.3-2.5-6.2c-2.4-2.5-5-2.5-6.3-2.6-8.7-.7-21.8-.7-21.8-.7h0s-13.1,0-21.9.6c-1.2.1-3.9.2-6.3,2.6-1.9,1.9-2.5,6.2-2.5,6.2,0,0-.6,5.1-.6,10.1v4.7c0,5.1.6,10.1.6,10.1,0,0,.6,4.3,2.5,6.2,2.4,2.5,5.5,2.4,6.9,2.7,5.1.6,21.3.8,21.3.8,0,0,13.1,0,21.9-.7,1.2,0,3.9-.2,6.3-2.6s2.5-6.2,2.5-6.2c0,0,.6-5.1.6-10.1v-4.7c-.1-5.1-.7-10.2-.7-10.2M15-2.8v-19.2l18.5,9.6L15-2.8Z"/>
    </g>
    <g id="_圖層_5" data-name="圖層 5" class="cls-9">
      <g>
        <circle class="cls-6" cx="22.2" cy="-11.7" r="50"/>
        <g>
          <path class="cls-7" d="M10.8,14.8c-14.9,0-26.9-11.9-26.9-26.5s12.1-26.5,26.9-26.5,12.8,2.3,17.7,6.5l-6.9,7.7c-3-2.6-6.8-4-10.8-4C1.7-28-5.7-20.7-5.7-11.8S1.7,4.4,10.8,4.4,23.5.7,25.2-5.9h-14.3v-10.2h25.3v5.1c0,15.4-10.2,25.8-25.4,25.8Z"/>
          <polygon class="cls-7" points="64.3 -16 56.5 -16 56.5 -23.9 50.3 -23.9 50.3 -16 42.5 -16 42.5 -9.8 50.3 -9.8 50.3 -2 56.5 -2 56.5 -9.8 64.3 -9.8 64.3 -16"/>
        </g>
      </g>
    </g>
    <g id="_圖層_6" data-name="圖層 6" class="cls-9">
      <circle class="cls-1" cx="22.2" cy="-11.7" r="50"/>
      <path class="cls-7" d="M6.7,16.4H-5V-21.1H6.7V16.4ZM.8-26.3c-3.7,0-6.8-3-6.8-6.8s3-6.8,6.8-6.8,6.8,3,6.8,6.8c0,3.8-3,6.8-6.8,6.8ZM50.3,16.4h-11.6V-1.9c0-4.3,0-9.9-6.1-9.9s-7,4.7-7,9.6v18.5h-11.6V-21.1h11.2v5.1h.2c1.6-2.9,5.4-6.1,11-6.1,11.8,0,14,7.8,14,17.9v20.6h0Z"/>
    </g>
    <g id="_圖層_7" data-name="圖層 7" class="cls-9">
      <g>
        <circle class="cls-5" cx="22.2" cy="-11.7" r="50"/>
        <g>
          <path class="cls-7" d="M36.5,19.5H7.9C-1.4,19.5-9,11.9-9,2.6v-28.6c0-9.3,7.6-16.9,16.9-16.9h28.6c9.3,0,16.9,7.6,16.9,16.9V2.6c0,9.4-7.5,16.9-16.9,16.9ZM7.9-37.7c-6.5,0-11.7,5.2-11.7,11.7V2.6c0,6.5,5.2,11.7,11.7,11.7h28.6c6.5,0,11.7-5.2,11.7-11.7v-28.6c0-6.5-5.2-11.7-11.7-11.7H7.9Z"/>
          <path class="cls-7" d="M22.2,3.9C13.6,3.9,6.6-3.1,6.6-11.7s7-15.6,15.6-15.6,15.6,7,15.6,15.6S30.8,3.9,22.2,3.9ZM22.2-22.1c-5.7,0-10.4,4.7-10.4,10.4S16.5-1.3,22.2-1.3s10.4-4.7,10.4-10.4-4.7-10.4-10.4-10.4Z"/>
          <circle class="cls-7" cx="38.8" cy="-28.3" r="3.6"/>
        </g>
      </g>
    </g>
    <path class="cls-3" d="M19.1-18.4l6.9-4.2c3.7-2.2,8.3-2.8,12.4-1.2,2.4.9,5.1,1.2,7.9.7,5.6-1.1,10.2-5.6,11.3-11.2,2-10.1-6.6-18.9-16.6-17.2-5.4.9-9.8,4.9-11.4,10.1-.2.8-.4,1.6-.5,2.4-.5,4.3-3.3,8.1-7,10.3l-4.2,2.5c-3.6,2.2-8,2.3-12,.9-1.5-.6-3.2-.9-5-.9-8.9,0-16,8.2-14.1,17.4C-12.1-3.2-7.5,1.3-1.9,2.4c2.8.5,5.5.2,7.9-.7C10.1.2,14.6.7,18.4,2.9l6.9,4.2c2.3,1.4,3.8,3.9,3.8,6.7h0c0,8.9,8.1,16,17.4,14.2,5.6-1.1,10.1-5.6,11.2-11.2C59.5,7.6,52.5-.6,43.5-.6s-3.4.3-5,.9c-4,1.5-8.4,1.3-12-.9l-7.5-4.5c-2.3-1.4-3.7-3.9-3.7-6.6h0c0-2.7,1.4-5.3,3.8-6.7Z"/>
  </g>
  <g id="_圖層_2" data-name="圖層 2">
    <path class="cls-3" d="M17.7,14.7c-1.3,0-2.5.6-3.3,1.6l-5.8-2.9c0-.3.1-.6.1-1,0-.5,0-.9-.2-1.3l6-3.7c.8.8,1.9,1.3,3.1,1.3,2.4,0,4.3-1.9,4.3-4.3s-1.9-4.3-4.3-4.3-4.3,1.9-4.3,4.3,0,.9.2,1.3l-6,3.7c-.8-.8-1.9-1.3-3.1-1.3-2.4,0-4.3,1.9-4.3,4.3s1.9,4.3,4.3,4.3,2.5-.6,3.3-1.6l5.8,2.9c0,.3-.1.6-.1,1,0,2.4,1.9,4.3,4.3,4.3s4.3-1.9,4.3-4.3-1.9-4.3-4.3-4.3Z"/>
  </g>
</svg>