<?xml version="1.0" encoding="UTF-8"?>
<svg id="_圖層_1" data-name="圖層 1" xmlns="http://www.w3.org/2000/svg" version="1.1" viewBox="0 0 56.3 56.8">
  <defs>
    <style>
      .cls-1 {
        fill: #fff;
        stroke-width: 0px;
      }
    </style>
  </defs>
  <path class="cls-1" d="M42.6,56.6H13.7c-7.6,0-13.7-6.1-13.7-13.7V14C0,6.4,6.1.3,13.7.3h28.9c7.6,0,13.7,6.1,13.7,13.7v28.9c0,7.6-6.1,13.7-13.7,13.7ZM13.7,3.3C7.8,3.3,3,8.1,3,14v28.9c0,5.9,4.8,10.7,10.7,10.7h28.9c5.9,0,10.7-4.8,10.7-10.7V14c0-5.9-4.8-10.7-10.7-10.7H13.7Z"/>
  <path class="cls-1" d="M28.1,42.6c-7.8,0-14.2-6.4-14.2-14.2s6.4-14.2,14.2-14.2,14.2,6.4,14.2,14.2-6.4,14.2-14.2,14.2ZM28.1,17.2c-6.2,0-11.2,5-11.2,11.2s5,11.2,11.2,11.2,11.2-5,11.2-11.2-5-11.2-11.2-11.2Z"/>
  <path class="cls-1" d="M44,16.9c-2.6,0-4.6-2.1-4.6-4.6s2.1-4.6,4.6-4.6,4.6,2.1,4.6,4.6-2.1,4.6-4.6,4.6ZM44,10.6c-.9,0-1.6.7-1.6,1.6s.7,1.6,1.6,1.6,1.6-.7,1.6-1.6-.7-1.6-1.6-1.6Z"/>
</svg>