<?xml version="1.0" encoding="UTF-8"?>
<svg id="_圖層_1" data-name="圖層 1" xmlns="http://www.w3.org/2000/svg" version="1.1" viewBox="0 0 56.3 56.8">
  <defs>
    <style>
      .cls-1 {
        fill: #fff;
        stroke-width: 0px;
      }
    </style>
  </defs>
  <path class="cls-1" d="M46.3,49.2H10c-5.3,0-9.7-4.3-9.7-9.7v-22.3C.3,11.9,4.7,7.6,10,7.6h36.3c5.3,0,9.7,4.3,9.7,9.7v22.3c0,5.3-4.3,9.7-9.7,9.7ZM10,10.6c-3.7,0-6.7,3-6.7,6.7v22.3c0,3.7,3,6.7,6.7,6.7h36.3c3.7,0,6.7-3,6.7-6.7v-22.3c0-3.7-3-6.7-6.7-6.7H10Z"/>
  <path class="cls-1" d="M24,37c-.5,0-.9-.1-1.3-.3-.9-.5-1.4-1.4-1.4-2.4v-12.3c0-1,.5-1.9,1.4-2.4.9-.5,1.9-.5,2.8,0l10,6.2c.8.5,1.3,1.4,1.3,2.4s-.5,1.8-1.3,2.4l-10,6.2c-.4.3-.9.4-1.5.4ZM24.3,22.4v11.5l9.3-5.7-9.3-5.7ZM33.9,28.3s0,0,0,0h0Z"/>
</svg>