<?xml version="1.0" encoding="UTF-8"?>
<svg id="_圖層_1" data-name="圖層 1" xmlns="http://www.w3.org/2000/svg" version="1.1" viewBox="0 0 56.3 56.8">
  <defs>
    <style>
      .cls-1 {
        fill: #fff;
        stroke-width: 0px;
      }
    </style>
  </defs>
  <path class="cls-1" d="M34,56.8h-13.3v-27.5h-10.2v-11.8h10.2v-5c0-8.5,5-12.6,15.4-12.6s8.6.8,8.7.8l1.1.3v10.5h-8.3c-.8,0-2.8,0-3.2.3-.1.1-.3.6-.3,2.4v3.3h10.5l-2,11.8h-8.7v27.5ZM23.6,53.8h7.3v-27.5h9.1l1-5.8h-10v-6.3c0-4.9,1.5-5.7,6.5-5.7h5.3V3.5c-1.3-.2-3.6-.5-6.8-.5-8.7,0-12.4,2.9-12.4,9.6v8h-10.2v5.8h10.2v27.5Z"/>
</svg>