<?xml version="1.0" encoding="UTF-8" standalone="no"?>
<svg
   width="150"
   height="253.797"
   viewBox="0 0 150 253.79699"
   fill="none"
   version="1.1"
   id="svg306"
   sodipodi:docname="logo_v.svg"
   inkscape:version="1.2.2 (732a01da63, 2022-12-09)"
   xmlns:inkscape="http://www.inkscape.org/namespaces/inkscape"
   xmlns:sodipodi="http://sodipodi.sourceforge.net/DTD/sodipodi-0.dtd"
   xmlns="http://www.w3.org/2000/svg"
   xmlns:svg="http://www.w3.org/2000/svg">
  <sodipodi:namedview
     id="namedview308"
     pagecolor="#ffffff"
     bordercolor="#000000"
     borderopacity="0.25"
     inkscape:showpageshadow="2"
     inkscape:pageopacity="0.0"
     inkscape:pagecheckerboard="0"
     inkscape:deskcolor="#d1d1d1"
     showgrid="false"
     inkscape:zoom="2.434375"
     inkscape:cx="34.505777"
     inkscape:cy="155.0706"
     inkscape:window-width="1920"
     inkscape:window-height="991"
     inkscape:window-x="-9"
     inkscape:window-y="-9"
     inkscape:window-maximized="1"
     inkscape:current-layer="svg306" />
  <g
     clip-path="url(#clip0_636_18061)"
     id="g299"
     transform="matrix(1.9977944,0,0,1.9977944,-30.901884,-33.110893)">
    <path
       d="m 29.8578,120.147 h 6.8355 v -1.849 h -6.8355 v -3.857 h 7.3273 v -1.842 h -9.4208 v 13.606 h 9.4776 v -1.849 h -7.3841 z"
       fill="#e60012"
       id="path221" />
    <path
       d="m 51.247,112.599 h -2.3646 l -3.3169,5.021 -3.1529,-5.021 h -2.5097 l 4.4141,6.627 -4.6726,6.979 h 2.3773 l 3.5249,-5.329 3.424,5.329 h 2.5539 l -4.7167,-6.985 z"
       fill="#e60012"
       id="path223" />
    <path
       d="m 62.8937,113.418 c -0.7882,-0.595 -1.7908,-0.826 -3.5816,-0.826 h -5.1392 v 13.607 h 2.0935 v -5.387 h 3.3925 c 1.3809,0 2.5538,-0.396 3.3988,-1.145 0.8513,-0.748 1.2927,-1.797 1.2927,-3.025 0,-0.634 -0.1325,-1.273 -0.391,-1.836 -0.2585,-0.576 -0.6306,-1.062 -1.0783,-1.388 z m -0.8891,3.23 c 0,0.755 -0.2333,1.337 -0.681,1.734 -0.4603,0.403 -1.135,0.607 -2.0115,0.607 h -3.0394 v -4.548 h 3.424 c 0.7441,0 1.3242,0.192 1.7152,0.576 0.3909,0.377 0.5927,0.927 0.5927,1.631 z"
       fill="#e60012"
       id="path225" />
    <path
       d="m 77.3025,114.192 c -1.1224,-1.248 -2.7178,-1.913 -4.6221,-1.913 -1.9044,0 -3.4934,0.659 -4.6222,1.913 -1.1161,1.247 -1.7088,3.019 -1.7088,5.124 v 0.166 c 0,2.104 0.5927,3.883 1.7088,5.13 1.1225,1.254 2.7241,1.913 4.6222,1.913 1.898,0 3.4997,-0.659 4.6221,-1.913 1.1224,-1.247 1.7089,-3.019 1.7089,-5.13 v -0.166 c 0,-2.105 -0.5928,-3.877 -1.7089,-5.124 z m -4.6221,10.484 c -1.2423,0 -2.3016,-0.492 -3.0646,-1.433 -0.7693,-0.94 -1.1729,-2.264 -1.1729,-3.812 0,-1.548 0.4035,-2.943 1.1665,-3.883 0.7567,-0.928 1.8413,-1.42 3.1277,-1.42 1.2864,0 2.2701,0.499 3.0205,1.439 0.7567,0.953 1.1602,2.277 1.1602,3.845 0,1.567 -0.4035,2.891 -1.1665,3.831 -0.7567,0.941 -1.8224,1.433 -3.0709,1.433 z"
       fill="#e60012"
       id="path227" />
    <path
       d="m 32.8973,138.685 0.5675,-0.39 c 1.3683,-0.934 2.1566,-1.631 2.6358,-2.335 0.4729,-0.678 0.6684,-1.394 0.6684,-2.386 0,-1.228 -0.4162,-2.271 -1.217,-3.013 -0.7945,-0.742 -1.898,-1.138 -3.2033,-1.138 -2.0116,0 -3.67,1.03 -4.3384,2.686 l -0.0378,0.09 1.6395,1.235 0.0504,-0.16 c 0.4603,-1.382 1.2801,-2.028 2.5854,-2.028 1.4881,0 2.4529,0.966 2.4529,2.45 0,0.582 -0.1198,1.011 -0.3973,1.426 -0.2837,0.423 -0.763,0.864 -1.5512,1.421 -2.0493,1.445 -3.0772,2.232 -3.7393,3.102 -0.681,0.883 -0.9396,1.798 -1.2296,3.39 l -0.0252,0.148 h 8.9352 v -1.83 h -6.5327 c 0.2396,-0.672 0.8134,-1.343 2.7304,-2.668 z"
       fill="#0068b7"
       id="path229" />
    <path
       d="m 46.0637,129.423 c -0.8829,0 -1.6585,0.198 -2.3143,0.582 -0.6053,0.358 -1.1098,0.883 -1.5007,1.554 -0.6811,1.165 -1.0468,2.821 -1.0468,4.785 0,2.265 0.4225,4.024 1.2485,5.207 0.8387,1.203 2.0683,1.811 3.6637,1.811 0.763,0 1.4566,-0.16 2.0557,-0.467 0.599,-0.307 1.1035,-0.768 1.5134,-1.363 0.8197,-1.203 1.2359,-2.936 1.2359,-5.149 0,-4.491 -1.7278,-6.96 -4.8618,-6.96 z m -1.2108,2.124 c 0.3406,-0.212 0.7504,-0.314 1.2108,-0.314 0.9332,0 1.6142,0.409 2.0746,1.254 0.4666,0.857 0.7062,2.175 0.7062,3.915 0,1.74 -0.2396,3.051 -0.7189,3.902 -0.4666,0.838 -1.1602,1.247 -2.1061,1.247 -0.4477,0 -0.845,-0.108 -1.1855,-0.32 -0.3342,-0.211 -0.6242,-0.53 -0.8512,-0.953 -0.473,-0.87 -0.7063,-2.181 -0.7063,-3.902 0,-1.721 0.2396,-3.032 0.7126,-3.889 0.2333,-0.416 0.5233,-0.736 0.8638,-0.947 z"
       fill="#0068b7"
       id="path231" />
    <path
       d="m 60.321,138.685 0.5675,-0.39 c 1.362,-0.934 2.1502,-1.631 2.6358,-2.335 0.4666,-0.678 0.6684,-1.394 0.6684,-2.386 0,-1.228 -0.4225,-2.271 -1.217,-3.013 -0.7945,-0.742 -1.9043,-1.138 -3.2033,-1.138 -2.0116,0 -3.67,1.03 -4.3384,2.686 l -0.0378,0.09 1.6395,1.235 0.0504,-0.16 c 0.4603,-1.382 1.2864,-2.028 2.5917,-2.028 1.4881,0 2.4529,0.966 2.4529,2.45 0,0.582 -0.1198,1.011 -0.3972,1.426 -0.2901,0.423 -0.763,0.864 -1.5513,1.421 -2.0493,1.445 -3.0772,2.232 -3.7393,3.102 -0.681,0.883 -0.9395,1.798 -1.2359,3.39 l -0.0252,0.148 h 8.9352 v -1.83 h -6.5327 c 0.2396,-0.672 0.8134,-1.343 2.7304,-2.668 z"
       fill="#0068b7"
       id="path233" />
    <path
       d="m 77.2204,135.244 c -0.7378,-0.768 -1.8034,-1.177 -3.0709,-1.177 -1.0594,0 -1.8728,0.211 -2.6673,0.703 l 0.3468,-3.294 h 5.713 v -1.868 h -7.2453 l -0.8765,7.318 1.6899,0.122 0.0379,-0.039 c 0.7503,-0.793 1.7593,-1.228 2.8565,-1.228 0.7062,0 1.28,0.237 1.671,0.672 0.391,0.448 0.599,1.107 0.599,1.906 0,1.017 -0.2459,1.804 -0.7377,2.335 -0.4919,0.537 -1.2044,0.806 -2.1314,0.806 -0.6243,0 -1.1476,-0.128 -1.5953,-0.377 -0.4414,-0.25 -0.845,-0.646 -1.2234,-1.209 l -0.0756,-0.103 -1.4945,1.133 0.0694,0.095 c 0.5486,0.794 1.1602,1.363 1.8728,1.734 0.7125,0.371 1.5323,0.55 2.5034,0.55 1.444,0 2.6673,-0.467 3.5501,-1.343 0.8828,-0.883 1.3494,-2.111 1.3494,-3.55 0,-1.318 -0.3909,-2.425 -1.1287,-3.193 z"
       fill="#0068b7"
       id="path235" />
    <path
       d="m 29.0065,106.394 c -0.8134,0 -1.3368,0.582 -1.3368,1.484 v 0.032 c 0,0.902 0.5234,1.484 1.3368,1.484 0.8134,0 1.3368,-0.582 1.3368,-1.484 v -0.032 c 0,-0.902 -0.5234,-1.484 -1.3368,-1.484 z m 0,2.591 c -0.5234,0 -0.8765,-0.435 -0.8765,-1.088 0,-0.652 0.3405,-1.1 0.8891,-1.1 0.5108,0 0.8639,0.441 0.8639,1.094 0,0.652 -0.3405,1.087 -0.8702,1.087 z"
       fill="#231815"
       id="path237" />
    <path
       d="m 32.8531,107.84 c -0.1514,-0.071 -0.309,-0.122 -0.6684,-0.212 -0.3342,-0.083 -0.3721,-0.102 -0.4604,-0.147 -0.1135,-0.057 -0.1765,-0.166 -0.1765,-0.294 0,-0.23 0.2081,-0.377 0.5423,-0.377 0.309,0 0.5549,0.115 0.7693,0.339 l 0.0252,0.025 0.3405,-0.268 -0.0252,-0.032 c -0.309,-0.327 -0.6558,-0.48 -1.1098,-0.48 -0.5991,0 -1.0216,0.339 -1.0216,0.825 0,0.275 0.1325,0.493 0.3847,0.627 0.1324,0.07 0.1766,0.083 0.5108,0.173 0.5296,0.14 0.5675,0.16 0.6558,0.204 0.1261,0.077 0.1828,0.167 0.1828,0.295 0,0.262 -0.2711,0.454 -0.6495,0.454 -0.227,0 -0.4225,-0.064 -0.5801,-0.186 -0.0757,-0.057 -0.1513,-0.14 -0.2396,-0.256 l -0.0252,-0.032 -0.3595,0.275 0.0253,0.026 c 0.1071,0.134 0.2017,0.243 0.2963,0.32 0.2333,0.179 0.5675,0.288 0.9017,0.288 0.6495,0 1.1162,-0.371 1.1162,-0.889 0,-0.307 -0.1577,-0.557 -0.4414,-0.678 z"
       fill="#231815"
       id="path239" />
    <path
       d="M 35.3816,106.464 H 34.915 l -1.1098,2.866 h 0.4792 l 0.2522,-0.685 h 1.2044 l 0.246,0.685 h 0.5044 z m 0.2144,1.778 h -0.9143 l 0.4603,-1.266 z"
       fill="#231815"
       id="path241" />
    <path
       d="m 38.3264,107.628 1.1981,-1.164 h -0.6116 l -1.3179,1.311 v -1.311 h -0.4604 v 2.86 h 0.4604 v -0.992 l 0.4098,-0.384 0.9585,1.363 0.0063,0.013 h 0.5802 z"
       fill="#231815"
       id="path243" />
    <path
       d="m 41.5928,106.464 h -0.4666 l -1.1098,2.866 h 0.4792 l 0.2522,-0.685 h 1.2044 l 0.246,0.685 h 0.5044 z m 0.2081,1.778 h -0.9143 l 0.4666,-1.266 z"
       fill="#231815"
       id="path245" />
    <path
       d="m 43.3017,108.805 v 0.518 h 0.227 c -0.0063,0.154 -0.0693,0.269 -0.1891,0.352 l -0.0442,0.026 0.227,0.179 0.0252,-0.019 c 0.1955,-0.166 0.2712,-0.339 0.2712,-0.627 v -0.435 H 43.308 Z"
       fill="#231815"
       id="path247" />
    <path
       d="m 46.5429,107.628 1.1981,-1.164 h -0.6054 l -1.3179,1.311 v -1.311 h -0.4603 v 2.86 h 0.4603 v -0.992 l 0.4036,-0.384 0.9585,1.363 0.0126,0.013 h 0.5801 z"
       fill="#231815"
       id="path249" />
    <path
       d="m 49.8598,106.464 h -0.4667 l -1.1098,2.866 h 0.4793 l 0.2522,-0.685 h 1.2044 l 0.2459,0.685 h 0.5045 z m 0.2144,1.778 h -0.9144 l 0.4603,-1.266 z"
       fill="#231815"
       id="path251" />
    <path
       d="m 53.5549,106.458 v 2.175 l -1.4566,-2.156 -0.0063,-0.019 h -0.473 v 2.866 h 0.4414 v -2.169 l 1.444,2.156 0.0127,0.013 h 0.4792 v -2.866 z"
       fill="#231815"
       id="path253" />
    <path
       d="m 56.7015,107.84 c -0.1513,-0.071 -0.3153,-0.122 -0.6684,-0.212 -0.3342,-0.083 -0.3721,-0.102 -0.4603,-0.147 -0.1135,-0.057 -0.1766,-0.166 -0.1766,-0.294 0,-0.23 0.2018,-0.377 0.536,-0.377 0.3027,0 0.5612,0.115 0.7693,0.339 l 0.0189,0.025 0.3468,-0.268 -0.0252,-0.032 c -0.309,-0.327 -0.6621,-0.48 -1.1098,-0.48 -0.5991,0 -1.0215,0.339 -1.0215,0.825 0,0.275 0.1324,0.493 0.3783,0.627 0.1324,0.07 0.1829,0.083 0.5108,0.173 0.5297,0.14 0.5675,0.16 0.6558,0.204 0.1324,0.077 0.1828,0.167 0.1828,0.295 0,0.262 -0.2711,0.454 -0.6495,0.454 -0.2207,0 -0.4224,-0.064 -0.5801,-0.186 -0.0756,-0.057 -0.1513,-0.14 -0.2396,-0.256 l -0.0252,-0.032 -0.3595,0.275 0.0253,0.026 c 0.1072,0.134 0.1954,0.243 0.2963,0.32 0.227,0.179 0.5676,0.288 0.9018,0.288 0.6495,0 1.1161,-0.371 1.1161,-0.889 0,-0.307 -0.1577,-0.557 -0.4351,-0.678 z"
       fill="#231815"
       id="path255" />
    <path
       d="m 59.2364,106.483 v -0.025 h -0.4792 l -1.0846,2.814 -0.0189,0.052 h 0.4792 l 0.246,-0.685 h 1.2044 l 0.2459,0.685 h 0.5044 z m 0.2018,1.76 h -0.9143 l 0.4666,-1.267 z"
       fill="#231815"
       id="path257" />
    <path
       d="m 61.5001,106.458 h -0.4603 v 2.866 h 0.4603 z"
       fill="#231815"
       id="path259" />
    <path
       d="m 62.2569,108.805 v 0.518 h 0.2207 c 0,0.154 -0.0694,0.269 -0.1892,0.352 l -0.0441,0.026 0.227,0.179 0.0189,-0.019 c 0.1955,-0.166 0.2711,-0.339 0.2711,-0.627 v -0.435 h -0.5107 z"
       fill="#231815"
       id="path261" />
    <path
       d="m 65.5043,106.458 v 2.079 c 0,0.32 -0.1135,0.448 -0.391,0.448 -0.1954,0 -0.372,-0.077 -0.4792,-0.218 -0.0441,-0.051 -0.0883,-0.141 -0.1135,-0.205 l -0.0189,-0.044 -0.3342,0.255 0.0126,0.026 c 0.0252,0.077 0.082,0.166 0.1261,0.224 0.1955,0.243 0.4666,0.371 0.8134,0.371 0.5171,0 0.845,-0.301 0.845,-0.8 v -2.136 z"
       fill="#231815"
       id="path263" />
    <path
       d="m 68.2663,106.483 v -0.025 h -0.4792 l -1.0909,2.814 -0.019,0.052 h 0.4793 l 0.2522,-0.685 h 1.2044 l 0.2459,0.685 h 0.5045 z m 0.2018,1.76 h -0.9144 l 0.4667,-1.267 z"
       fill="#231815"
       id="path265" />
    <path
       d="m 71.9803,106.63 c -0.1702,-0.127 -0.3783,-0.172 -0.7567,-0.172 H 70.139 v 2.866 h 0.4604 v -1.126 h 0.6999 c 0.599,0 0.9963,-0.352 0.9963,-0.883 0,-0.282 -0.1198,-0.544 -0.309,-0.685 z m -0.2081,0.685 c 0,0.397 -0.2963,0.48 -0.5486,0.48 h -0.6242 v -0.928 h 0.7062 c 0.3027,0 0.4729,0.16 0.4729,0.448 z"
       fill="#231815"
       id="path267" />
    <path
       d="m 74.1117,106.483 v -0.025 h -0.473 l -1.0908,2.814 -0.019,0.052 h 0.4793 l 0.2459,-0.685 h 1.2044 l 0.2459,0.685 h 0.5045 l -1.1035,-2.841 z m 0.2018,1.76 h -0.9144 l 0.4603,-1.267 0.4478,1.267 z"
       fill="#231815"
       id="path269" />
    <path
       d="m 77.7943,106.458 v 2.175 l -1.4567,-2.156 -0.0126,-0.019 h -0.4666 v 2.866 h 0.4414 v -2.169 l 1.444,2.156 0.0126,0.013 h 0.4793 v -2.866 z"
       fill="#231815"
       id="path271" />
    <path
       d="m 90.5382,44.0045 c 0,-3.5695 -5.9716,-6.4929 -13.5006,-6.6912 1.7908,-2.1301 2.8754,-4.8872 2.8754,-7.9002 0,-6.7295 -5.3788,-12.1861 -12.0125,-12.1861 -4.5591,0 -8.5191,2.5779 -10.5496,6.3713 -1.1098,-3.9085 -4.6536,-6.7743 -8.8596,-6.7743 -5.0887,0 -9.219,4.1836 -9.219,9.3523 0,0.2047 0.0063,0.4094 0.0252,0.6141 -0.6936,-0.2239 -1.4188,-0.339 -2.1755,-0.339 -4.351,0 -7.8822,3.9021 -7.8822,8.719 0,0.435 0.0315,0.8636 0.0883,1.2858 -1.4062,-0.9212 -3.0772,-1.4585 -4.8681,-1.4585 -4.9689,0 -8.992,4.0812 -8.992,9.122 0,4.0108 2.5539,7.4204 6.1103,8.6358 -3.0457,1.8999 -5.0761,5.3095 -5.0761,9.2052 0,5.9619 4.7608,10.798 10.6441,10.798 0.372,0 0.7441,-0.0192 1.1035,-0.0575 -0.1513,0.8699 -0.227,1.7847 -0.227,2.7378 0,5.2583 2.4466,9.5571 5.5176,9.8001 -0.2081,0.7293 -0.3216,1.5033 -0.3216,2.2965 0,4.5227 3.6132,8.1881 8.0713,8.1881 2.0494,0 3.9159,-0.774 5.3347,-2.047 1.6837,4.1452 5.7068,7.0623 10.4046,7.0623 6.2174,0 11.2558,-5.1112 11.2558,-11.4186 0,-0.7357 -0.0757,-1.4521 -0.2018,-2.1558 1.6332,0.6653 3.4492,1.0363 5.3599,1.0363 7.1949,0 13.0277,-5.2519 13.0277,-11.7256 0,-4.4394 -2.743,-8.3032 -6.785,-10.2926 2.4655,-1.8551 4.1113,-5.1943 4.1113,-9.0197 0,-2.6803 -0.8071,-5.1175 -2.1376,-6.979 5.2149,-0.998 8.8911,-3.3968 8.8911,-6.1987 z m -42.709,38.7526 c -1.4629,-2.0598 -3.8528,-3.3967 -6.5454,-3.3967 -0.7756,0 -1.5196,0.1087 -2.2322,0.3198 0.3657,-1.2794 0.5675,-2.7123 0.5675,-4.2284 0,-3.6974 -1.2044,-6.915 -2.9889,-8.591 0.7378,-1.4713 1.1539,-3.1281 1.1539,-4.8873 0,-2.0662 -0.5738,-3.9981 -1.5638,-5.6357 0.1009,0 0.2081,0.0064 0.3027,0.0064 4.2942,0 7.775,-3.5311 7.775,-7.881 0,-2.4244 -1.0783,-4.5994 -2.7808,-6.0387 2.1061,-1.5673 3.487,-4.222 3.487,-7.2413 0,-0.1152 0,-0.2303 0,-0.3455 1.0783,0.4478 2.2575,0.6973 3.4934,0.6973 3.1466,0 5.9212,-1.5992 7.5859,-4.0365 0.7251,4.286 3.6573,7.8043 7.5669,9.3076 -1.1098,0.9531 -1.7404,2.0406 -1.7404,3.2048 0,2.4884 2.907,4.6634 7.2201,5.8212 -1.5008,1.8999 -2.4277,4.4971 -2.4277,7.3629 0,3.2368 1.1792,6.1283 3.0394,8.0665 -5.3978,1.4329 -9.3389,5.9236 -9.3389,11.2458 0,0.6909 0.0694,1.3626 0.1955,2.0215 -1.1287,-0.3839 -2.3268,-0.595 -3.5754,-0.595 -3.796,0 -7.157,1.9063 -9.1938,4.8297 z"
       fill="#e60012"
       id="path273" />
    <path
       d="m 84.6108,77.4925 c 0,3.2368 -2.8628,5.8659 -6.3877,5.8659 -3.525,0 -6.3878,-2.6291 -6.3878,-5.8659 0,-3.2369 2.8628,-5.866 6.3878,-5.866 3.5249,0 6.3877,2.6291 6.3877,5.866 z"
       fill="#ffffff"
       id="path275" />
    <path
       d="m 84.2262,76.1298 c 0,1.5417 -1.2297,2.7891 -2.7493,2.7891 -1.5197,0 -2.7494,-1.2474 -2.7494,-2.7891 0,-1.5417 1.2297,-2.7954 2.7494,-2.7954 1.5196,0 2.7493,1.2537 2.7493,2.7954 z"
       fill="#0068b7"
       id="path277" />
    <path
       d="m 75.6945,24.9224 c 0,2.9042 -2.3205,5.2583 -5.177,5.2583 -2.8629,0 -5.1834,-2.3541 -5.1834,-5.2583 0,-2.9042 2.3205,-5.2519 5.1834,-5.2519 2.8628,0 5.177,2.3541 5.177,5.2519 z"
       fill="#ffffff"
       id="path279" />
    <path
       d="m 74.7486,22.8435 c 0,1.4009 -1.1162,2.5332 -2.4971,2.5332 -1.381,0 -2.4971,-1.1387 -2.4971,-2.5332 0,-1.3945 1.1161,-2.5332 2.4971,-2.5332 1.3809,0 2.4971,1.1323 2.4971,2.5332 z"
       fill="#0068b7"
       id="path281" />
    <path
       d="m 26.7049,43.288 c 0,2.5716 -2.0557,4.6506 -4.5843,4.6506 -2.5286,0 -4.5906,-2.0854 -4.5906,-4.6506 0,-2.5652 2.0557,-4.6505 4.5906,-4.6505 2.535,0 4.5906,2.079 4.5906,4.6505 z"
       fill="#ffffff"
       id="path283" />
    <path
       d="m 22.2783,42.0343 c 0,1.2346 -0.9837,2.2325 -2.2008,2.2325 -1.217,0 -2.2007,-0.9979 -2.2007,-2.2325 0,-1.2346 0.9837,-2.2325 2.2007,-2.2325 1.2171,0 2.2008,0.9979 2.2008,2.2325 z"
       fill="#0068b7"
       id="path285" />
    <path
       d="m 34.7637,63.6047 c 0,2.6355 -2.1692,4.7657 -4.8429,4.7657 -2.6736,0 -4.8428,-2.1366 -4.8428,-4.7657 0,-2.6291 2.1692,-4.7657 4.8428,-4.7657 2.6737,0 4.8429,2.1366 4.8429,4.7657 z"
       fill="#ffffff"
       id="path287" />
    <path
       d="m 27.386,61.1738 c 0,1.2858 1.0278,2.3285 2.2953,2.3285 1.2674,0 2.2953,-1.0363 2.2953,-2.3285 0,-1.2922 -1.0279,-2.3285 -2.2953,-2.3285 -1.2675,0 -2.2953,1.0427 -2.2953,2.3285 z"
       fill="#0068b7"
       id="path289" />
    <path
       d="m 59.9553,93.4464 c 0,2.1941 -1.753,3.9725 -3.9159,3.9725 -2.1629,0 -3.9159,-1.7784 -3.9159,-3.9725 0,-2.1942 1.753,-3.9725 3.9159,-3.9725 2.1629,0 3.9159,1.7783 3.9159,3.9725 z"
       fill="#ffffff"
       id="path291" />
    <path
       d="m 54.3368,95.6917 c 0,-0.9595 0.763,-1.7336 1.7026,-1.7336 0.9395,0 1.7088,0.7741 1.7088,1.7336 0,0.9595 -0.763,1.7272 -1.7088,1.7272 -0.9459,0 -1.7026,-0.7741 -1.7026,-1.7272 z"
       fill="#0068b7"
       id="path293" />
    <path
       d="m 75.9466,91.329 h -0.6621 v 1.7784 H 75.0071 V 91.329 H 74.345 v -0.2431 h 1.6079 v 0.2431 z"
       fill="#231815"
       id="path295" />
    <path
       d="m 78.2357,91.0923 v 2.015 h -0.2649 v -1.6696 l -0.5549,0.9596 h -0.2585 l -0.5549,-0.9596 v 1.6696 h -0.2649 v -2.015 h 0.3343 l 0.6116,1.0555 0.618,-1.0555 z"
       fill="#231815"
       id="path297" />
  </g>
  <defs
     id="defs304">
    <clipPath
       id="clip0_636_18061">
      <rect
         width="106"
         height="160"
         fill="#ffffff"
         id="rect301"
         x="0"
         y="0" />
    </clipPath>
  </defs>
</svg>
