<?xml version="1.0" encoding="UTF-8"?>
<svg id="_圖層_1" data-name="圖層_1" xmlns="http://www.w3.org/2000/svg" version="1.1" viewBox="0 0 410.1 191.4">
  <!-- Generator: Adobe Illustrator 29.1.0, SVG Export Plug-In . SVG Version: 2.1.0 Build 142)  -->
  <defs>
    <style>
      .st0 {
        fill: #0099a8;
      }

      .st1 {
        fill: #425cc7;
      }

      .st2 {
        fill: #fff;
      }
    </style>
  </defs>
  <path class="st1" d="M229.8,98.7c-13.7,0-25.4,8.7-30,20.8-1.3,3.5-2,7.2-2,11.2s0,1.3,0,1.9c.3,5.4,2,10.5,4.7,14.8,3.1,5,7.5,9.1,12.8,11.8,4.3,2.2,9.2,3.5,14.4,3.5s10.2-1.3,14.5-3.5c5.7-2.9,10.4-7.5,13.5-13.1,2.5-4.6,4-9.8,4-15.4,0-17.7-14.3-32-32-32Z"/>
  <g>
    <polygon class="st0" points="130.6 191 146.4 191 146.4 187.2 134.8 187.2 134.8 180.1 146.4 180.1 146.4 176.3 134.8 176.3 134.8 171.5 146.4 171.5 146.4 167.7 130.6 167.7 130.6 191"/>
    <polygon class="st0" points="164.8 167.7 159 176.2 153.4 167.7 148.6 167.7 156.5 179.3 148.4 191 153.1 191 158.9 182.3 164.6 191 169.4 191 161.4 179.2 169.5 167.7 164.8 167.7"/>
    <path class="st0" d="M184.4,169.2c-.8-.5-1.7-.9-2.6-1.1-1-.2-2.1-.3-3.5-.3h-6.6v23.3h4.1v-8.2h2.3c1.6,0,3-.2,4.1-.6,1.1-.4,2.1-1,2.9-1.9.7-.7,1.2-1.5,1.6-2.4.4-.9.6-1.9.6-2.9s-.3-2.5-.8-3.5c-.5-.9-1.2-1.7-2.1-2.3ZM175.8,171.4h2.3c.9,0,1.6,0,2.2.2.5.1,1,.3,1.4.6.5.3.8.7,1,1.1.2.5.3,1.1.3,1.7s0,1.1-.2,1.6c-.2.4-.5.9-.9,1.3-.4.4-.9.7-1.6.9-.7.2-1.6.3-2.7.3h-1.9v-7.6Z"/>
    <path class="st0" d="M207.5,170.4c-.9-1-2.1-1.8-3.4-2.4-1.3-.5-2.8-.8-4.5-.8s-3.1.3-4.4.8c-1.4.6-2.5,1.4-3.5,2.4-1,1.1-1.7,2.4-2.2,3.9-.5,1.5-.7,3.2-.7,5s.3,3.6.7,5.1c.5,1.5,1.2,2.8,2.2,3.8.9,1,2.1,1.8,3.5,2.4,1.3.5,2.8.8,4.5.8s3.2-.3,4.5-.8c1.3-.5,2.5-1.3,3.4-2.4.9-1,1.7-2.3,2.2-3.8.5-1.5.8-3.2.8-5.1s-.2-3.6-.7-5.1c-.5-1.5-1.2-2.8-2.2-3.8ZM206.2,179.3c0,2.7-.6,4.8-1.8,6.3-1.2,1.4-2.8,2.1-4.8,2.1s-3.6-.7-4.8-2.1c-1.2-1.4-1.8-3.5-1.8-6.3s.6-4.8,1.8-6.3c1.2-1.4,2.7-2.1,4.8-2.1s3.6.7,4.8,2.1c1.2,1.4,1.8,3.5,1.8,6.3Z"/>
    <path class="st0" d="M230.2,185.6c1.1-1,2.2-2,3.3-3,.7-.7,1.4-1.4,1.9-2,.5-.6,1-1.2,1.4-1.9.4-.7.8-1.4,1-2.2.2-.8.3-1.6.3-2.5,0-2-.7-3.7-2.1-4.9-1.4-1.2-3.3-1.8-5.7-1.8s-2.3.1-3.5.4c-1.2.3-2.2.6-2.9,1l-.3.2v4.1h1.1c.9-.7,1.9-1.2,2.9-1.5,2.4-.7,4.4-.5,5.5.4.6.5.9,1.3.9,2.2s-.3,2.2-1,3.2c-.7,1-2,2.5-3.8,4.3-.9.9-1.8,1.7-2.9,2.6l-3.3,2.8v4h16.1v-3.7h-10.9c.6-.5,1.3-1.1,1.9-1.7Z"/>
    <path class="st0" d="M250.1,167.2c-2.8,0-4.9,1-6.3,3.1-1.3,2-1.9,5-1.9,9s.7,7,1.9,9c1.3,2.1,3.4,3.1,6.3,3.1s4.9-1,6.3-3c1.3-1.9,2-5,2-9.1s-.6-6.9-1.9-8.9c-1.3-2.1-3.4-3.1-6.3-3.1ZM252.1,187.3c-.5.3-1.2.5-2,.5s-1.6-.2-2-.5c-.5-.3-.9-.8-1.2-1.5-.3-.8-.6-1.6-.7-2.6-.1-1-.2-2.3-.2-3.8s0-2.7.2-3.8c.1-1.1.3-2,.6-2.7.3-.7.7-1.2,1.2-1.5.5-.3,1.2-.5,2-.5s1.5.2,2,.5c.5.3.9.8,1.2,1.5.3.7.6,1.6.7,2.6.1,1.1.2,2.4.2,3.8s0,2.8-.2,3.8c-.1,1-.3,1.9-.7,2.7-.3.7-.7,1.2-1.2,1.5Z"/>
    <path class="st0" d="M268.8,185.6c1.1-1,2.2-2,3.3-3,.8-.7,1.4-1.4,1.9-2,.5-.6,1-1.2,1.4-1.9.4-.7.8-1.4,1-2.2.2-.8.3-1.6.3-2.5,0-2-.7-3.7-2.1-4.9-1.4-1.2-3.3-1.8-5.7-1.8s-2.3.1-3.5.4c-1.2.3-2.2.6-2.9,1l-.3.2v4.1h1.1c.9-.7,1.9-1.2,2.9-1.5,2.4-.7,4.4-.5,5.5.4.6.5.9,1.3.9,2.2s-.3,2.2-1,3.2c-.7,1-2,2.5-3.8,4.3-.9.9-1.8,1.7-2.9,2.6l-3.3,2.8v4h16.1v-3.7h-10.9c.6-.5,1.3-1.1,1.9-1.7Z"/>
    <path class="st0" d="M296.1,179.8c-.5-.9-1.2-1.7-2-2.3-.8-.6-1.7-.9-2.7-1.2-.9-.2-2-.3-3.3-.3s-.7,0-1.2,0c-.2,0-.5,0-.7,0v-4.6h10.4v-3.8h-14.5v12.7h.7c.6-.3,1.3-.4,2.1-.5,1.6-.2,3.4-.2,4.8,0,.6.1,1.2.4,1.7.7.4.3.7.6.9,1,.2.4.3,1,.3,1.7s-.1,1.3-.3,1.8c-.2.5-.5.9-.8,1.3-.5.4-1,.7-1.5.9-1.5.5-3.2.3-4.9-.2-1-.3-2-.8-2.7-1.3h-.1c0,0-1,0-1,0v4.1l.3.2c.8.4,1.8.7,3,1,1.1.3,2.4.4,3.6.4s2.6-.2,3.6-.6c1.1-.4,2-1,2.8-1.7.7-.7,1.3-1.6,1.7-2.6.4-1,.6-2.1.6-3.2s-.2-2.6-.7-3.5Z"/>
  </g>
  <polygon class="st0" points="55.3 0 0 0 0 13.8 20.2 13.8 20.2 74.8 35.3 74.8 35.3 13.8 55.3 13.8 55.3 0"/>
  <polygon class="st0" points="94.7 31.5 94.7 19.5 56.8 19.5 56.8 74.8 94.7 74.8 94.7 62.9 68.9 62.9 68.9 52.7 93 52.7 93 40.7 68.9 40.7 68.9 31.5 94.7 31.5"/>
  <path class="st0" d="M140.9,55.9c-1.3,2.4-3.1,4.3-5.4,5.5-2.4,1.3-5.2,1.9-8.4,1.9h-.2c-4.5,0-8.1-1.4-11.1-4.4-3.1-3.2-4.7-7.2-4.7-11.9,0-4.7,1.6-8.5,4.7-11.8,3-3,6.8-4.4,11.4-4.4s6,.7,8.4,2c2.3,1.3,4.1,3.1,5.4,5.5l2.3,4.3,11.1-5.4-2.6-4.7c-5.1-9-13.4-13.6-24.5-13.8h-.2c-7.8,0-14.5,2.7-19.9,7.9-5.4,5.6-8.2,12.4-8.2,20.3,0,7.9,2.8,14.7,8.2,20.3,2.6,2.6,5.6,4.6,8.9,5.9,3.4,1.3,6.9,2,10.7,2h.5c11.2-.2,19.4-4.8,24.5-13.9l2.5-4.7-11.1-5.3-2.3,4.3Z"/>
  <polygon class="st0" points="203.7 19.5 191.6 19.5 191.6 40.7 171.7 40.7 171.7 19.5 159.6 19.5 159.6 74.8 171.7 74.8 171.7 52.6 191.6 52.6 191.6 74.8 203.7 74.8 203.7 19.5"/>
  <polygon class="st0" points="203.7 82.9 187.2 82.9 174.8 128.6 160.3 82.9 149.7 82.9 135.7 128.6 123.3 82.9 107.1 82.9 130.7 158.6 141 158.6 155.2 118.6 168.7 157 169.5 158.6 179.8 158.6 203.7 82.9"/>
  <polygon class="st0" points="331 103.4 318.9 103.4 318.9 158.6 356.4 158.6 356.4 146.7 331 146.7 331 103.4"/>
  <path class="st0" d="M402.2,111.4c-5.4-5.3-12.3-8-20.4-8h-19.4v55.3h19.8c7.9,0,14.7-2.8,20-8,5.2-5.4,7.9-12,7.9-19.6,0-7.6-2.6-14.2-7.9-19.6ZM397.9,131c0,4.5-1.5,8.2-4.5,11.3-3,2.9-6.6,4.4-11.1,4.4h-7.7v-31.3h7.7c4.5,0,8.1,1.4,11.1,4.3,3.1,3.1,4.5,6.9,4.6,11.4Z"/>
  <path class="st0" d="M301.8,134.6c5.7-3.6,7.3-10.4,7.3-14.1s-1.8-9-5.4-12.4c-3.5-3.1-7.7-4.6-12.5-4.6h-22.1v55.3h12.1v-43.3h9.4c2.1,0,3.7.5,4.9,1.4,1,.9,1.5,2.1,1.5,3.7s-.5,2.8-1.5,3.7c-1.1.9-2.7,1.4-4.9,1.4h-6l14.4,33.1h14.3l-11.3-24.1Z"/>
  <g>
    <path class="st2" d="M206.1,119.6h.3-.3Z"/>
    <path class="st2" d="M210.1,129.6v-6c0,0,0-.1,0-.2h0c0,0,0-.1,0-.2v-2.3c0-.8.7-1.5,1.5-1.5h0c0,0,.1,0,.2,0h4.1c.3,0,.5,0,.8-.1-.3,0-.5.1-.8.1h.8c.8,0,1.5.7,1.5,1.5v.7c0-.2,0,3,0,3,0,1.1.9,2,2,2h3c1.1,0,2-.9,2-2v-3c0-1.1-.9-2-2-2h-3s0,0,0,0c-.8,0-1.5-.7-1.5-1.5v-1.3s0,0,0-.1v-4.1c0-1.5-1.2-2.7-2.7-2.7h-4.1c-1.5,0-2.7,1.2-2.7,2.7v4.1c0,.9,0,1.4,0,1.4,0,.8-.7,1.5-1.5,1.5h-1.2c.4,0,.3,0-.3,0h-6c-.1,0-.2,0-.4,0-1.3,3.5-2,7.2-2,11.2s0,1.3,0,1.9c.7.5,1.5.8,2.3.8h6c2.2,0,3.9-1.8,3.9-4Z"/>
    <path class="st2" d="M246.6,131.8v-9.5h0v-.8c-.1-1-.7-1.8-1.6-2.2l-.7-.2-13.2-4.7h-.2c0,0-.2-.1-.3-.1-.4,0-.7.2-.9.5-.1.2-.2.4-.2.6v20.5h-16.3c-1.8,0-3.4.8-4.4,2.1l-.2.3-6.1,9.4c3.1,5,7.5,9.1,12.8,11.8l14.3-21h0c0,0,0-.1,0-.1h0c0,0,14.5,21.1,14.5,21.1,5.7-2.9,10.4-7.5,13.5-13.1l-11.3-14.4Z"/>
  </g>
</svg>